<svg xmlns="http://www.w3.org/2000/svg" width="900" height="590" viewBox="0 0 900 590" role="img" aria-labelledby="title description">
<title id="title">Codex 계정 활동</title>
<desc id="description">공식 Codex App Server 토큰과 계정 Analytics 활동. 30 / 30일 토큰 일수</desc>
<defs><style>text{font-family:-apple-system,BlinkMacSystemFont,'Segoe UI',sans-serif;fill:#1f2328}.grid,.divider{stroke:#d0d7de}.panel{fill:#0d1117;fill-opacity:.02;stroke:#d0d7de}@media(prefers-color-scheme:dark){text{fill:#e6edf3}.grid,.divider{stroke:#30363d}.panel{fill-opacity:.36;stroke:#30363d}}</style></defs>
<rect class="panel" x=".5" y=".5" width="899" height="589" rx="12" fill="#0d1117" fill-opacity=".02" stroke="#d0d7de"/>
<text x="32" y="38" font-size="22" font-weight="600">Codex 계정 활동</text>
<text x="32" y="61" font-size="14" opacity=".68">공식 App Server 토큰 · 계정 Analytics</text>
<text x="32" y="94" font-size="14" opacity=".68">계정 누적 토큰</text><text x="32" y="124" font-size="27" font-weight="650">411.27억</text>
<line class="divider" x1="227" y1="84" x2="227" y2="132" opacity=".55"/>
<text x="249" y="94" font-size="14" opacity=".68">계정 턴</text><text x="249" y="124" font-size="27" font-weight="650">8,133</text>
<line class="divider" x1="444" y1="84" x2="444" y2="132" opacity=".55"/>
<text x="466" y="94" font-size="14" opacity=".68">Plugin 호출</text><text x="466" y="124" font-size="27" font-weight="650">12,922</text>
<line class="divider" x1="661" y1="84" x2="661" y2="132" opacity=".55"/>
<text x="683" y="94" font-size="14" opacity=".68">사용한 Skill</text><text x="683" y="124" font-size="27" font-weight="650">4,238</text>
<text x="32" y="174" font-size="16" font-weight="600">일별 계정 토큰</text>
<text x="868" y="174" font-size="11" text-anchor="end" opacity=".62">2026-08-22 — 2026-09-20 · 30 / 30일 토큰 일수</text>
<line class="grid" x1="64" y1="198" x2="868" y2="198" opacity=".45"/><line class="grid" x1="64" y1="262" x2="868" y2="262" opacity=".28"/><line class="grid" x1="64" y1="326" x2="868" y2="326" opacity=".65"/>
<text x="32" y="202" font-size="10" opacity=".58">10.68억</text><text x="32" y="330" font-size="10" opacity=".58">0</text>
<rect class="token-bar" x="68" y="305" width="15" height="21" rx="3" fill="#2f81f7"><title>2026-08-22: 178,485,366 토큰</title></rect><rect class="token-bar" x="95" y="242" width="15" height="84" rx="3" fill="#2f81f7"><title>2026-08-23: 703,395,684 토큰</title></rect><rect class="token-bar" x="122" y="296" width="15" height="30" rx="3" fill="#2f81f7"><title>2026-08-24: 248,176,351 토큰</title></rect><rect class="token-bar" x="149" y="253" width="15" height="73" rx="3" fill="#2f81f7"><title>2026-08-25: 607,569,497 토큰</title></rect><rect class="token-bar" x="176" y="270" width="15" height="56" rx="3" fill="#2f81f7"><title>2026-08-26: 465,750,366 토큰</title></rect><rect class="token-bar" x="203" y="276" width="15" height="50" rx="3" fill="#2f81f7"><title>2026-08-27: 414,338,860 토큰</title></rect><rect class="token-bar" x="230" y="263" width="15" height="63" rx="3" fill="#2f81f7"><title>2026-08-28: 529,042,659 토큰</title></rect><rect class="token-bar" x="257" y="224" width="15" height="102" rx="3" fill="#2f81f7"><title>2026-08-29: 853,211,539 토큰</title></rect><rect class="token-bar" x="284" y="251" width="15" height="75" rx="3" fill="#2f81f7"><title>2026-08-30: 627,925,357 토큰</title></rect><rect class="token-bar" x="311" y="261" width="15" height="65" rx="3" fill="#2f81f7"><title>2026-08-31: 540,039,339 토큰</title></rect><rect class="token-bar" x="338" y="283" width="15" height="43" rx="3" fill="#2f81f7"><title>2026-09-01: 354,940,383 토큰</title></rect><rect class="token-bar" x="365" y="262" width="15" height="64" rx="3" fill="#2f81f7"><title>2026-09-02: 531,010,479 토큰</title></rect><rect class="token-bar" x="392" y="226" width="15" height="100" rx="3" fill="#2f81f7"><title>2026-09-03: 835,243,000 토큰</title></rect><rect class="token-bar" x="419" y="244" width="15" height="82" rx="3" fill="#2f81f7"><title>2026-09-04: 682,923,095 토큰</title></rect><rect class="token-bar" x="446" y="306" width="15" height="20" rx="3" fill="#2f81f7"><title>2026-09-05: 169,143,256 토큰</title></rect><rect class="token-bar" x="473" y="198" width="15" height="128" rx="3" fill="#2f81f7"><title>2026-09-06: 1,067,831,636 토큰</title></rect><rect class="token-bar" x="500" y="227" width="15" height="99" rx="3" fill="#2f81f7"><title>2026-09-07: 824,793,462 토큰</title></rect><rect class="token-bar" x="527" y="265" width="15" height="61" rx="3" fill="#2f81f7"><title>2026-09-08: 510,744,953 토큰</title></rect><rect class="token-bar" x="554" y="205" width="15" height="121" rx="3" fill="#2f81f7"><title>2026-09-09: 1,006,149,964 토큰</title></rect><rect class="token-bar" x="581" y="228" width="15" height="98" rx="3" fill="#2f81f7"><title>2026-09-10: 813,943,995 토큰</title></rect><rect class="token-bar" x="608" y="290" width="15" height="36" rx="3" fill="#2f81f7"><title>2026-09-11: 299,176,144 토큰</title></rect><rect class="token-bar" x="635" y="300" width="15" height="26" rx="3" fill="#2f81f7"><title>2026-09-12: 218,087,542 토큰</title></rect><rect class="token-bar" x="662" y="265" width="15" height="61" rx="3" fill="#2f81f7"><title>2026-09-13: 509,810,549 토큰</title></rect><rect class="token-bar" x="689" y="225" width="15" height="101" rx="3" fill="#2f81f7"><title>2026-09-14: 839,844,303 토큰</title></rect><rect class="token-bar" x="716" y="284" width="15" height="42" rx="3" fill="#2f81f7"><title>2026-09-15: 351,871,988 토큰</title></rect><rect class="token-bar" x="743" y="304" width="15" height="22" rx="3" fill="#2f81f7"><title>2026-09-16: 182,573,890 토큰</title></rect><rect class="token-bar" x="770" y="314" width="15" height="12" rx="3" fill="#2f81f7"><title>2026-09-17: 104,006,627 토큰</title></rect><rect class="token-bar" x="797" y="265" width="15" height="61" rx="3" fill="#2f81f7"><title>2026-09-18: 505,572,752 토큰</title></rect><rect class="token-bar" x="824" y="222" width="15" height="104" rx="3" fill="#2f81f7"><title>2026-09-19: 863,817,998 토큰</title></rect><rect class="token-bar" x="851" y="309" width="15" height="17" rx="3" fill="#2f81f7"><title>2026-09-20: 140,052,192 토큰</title></rect>
<text x="75.5" y="348" font-size="10" text-anchor="middle" opacity=".62">08-22</text><text x="264.5" y="348" font-size="10" text-anchor="middle" opacity=".62">08-29</text><text x="453.5" y="348" font-size="10" text-anchor="middle" opacity=".62">09-05</text><text x="642.5" y="348" font-size="10" text-anchor="middle" opacity=".62">09-12</text><text x="858.5" y="348" font-size="10" text-anchor="middle" opacity=".62">09-20</text>
<line class="divider" x1="32" y1="382" x2="868" y2="382" opacity=".55"/>
<text x="32" y="414" font-size="16" font-weight="600">계정 토큰 인사이트</text>
<text x="32" y="476" font-size="14" opacity=".68">최고 사용일</text><text x="270" y="476" font-size="20" font-weight="600">09-06 · 10.68억</text>
<line class="divider" x1="450" y1="430" x2="450" y2="526" opacity=".55"/>
<text x="482" y="476" font-size="14" opacity=".68">현재 / 최장 연속 활동</text><text x="700" y="476" font-size="20" font-weight="600">35d / 35d</text>
<text x="32" y="568" font-size="12" opacity=".58">토큰은 Codex App Server 자동 수집 · Analytics 횟수는 계정 UI 확인</text>
</svg>
