<svg xmlns="http://www.w3.org/2000/svg" width="900" height="590" viewBox="0 0 900 590" role="img" aria-labelledby="title description">
<title id="title">Codex로 만든 30일</title>
<desc id="description">최근 30일의 익명 Codex 활동. 20 / 30일 토큰 일수 · + 하한</desc>
<defs><style>text{font-family:-apple-system,BlinkMacSystemFont,'Segoe UI',sans-serif;fill:#1f2328}.grid,.divider{stroke:#d0d7de}@media(prefers-color-scheme:dark){text{fill:#e6edf3}.panel{fill:#0d1117;stroke:#30363d}.grid,.divider{stroke:#30363d}}</style></defs>
<rect class="panel" x=".5" y=".5" width="899" height="589" rx="12" fill="#fff" stroke="#d0d7de"/>
<text x="32" y="38" font-size="20" font-weight="600">Codex로 만든 30일</text>
<text x="32" y="61" font-size="12" opacity=".68">최근 30일 로컬 활동 관측</text>
<text x="32" y="94" font-size="12" opacity=".68">관측 토큰</text><text x="32" y="124" font-size="25" font-weight="650">19.6억+</text>
<line class="divider" x1="227" y1="84" x2="227" y2="132" opacity=".55"/>
<text x="249" y="94" font-size="12" opacity=".68">관측 세션 시작</text><text x="249" y="124" font-size="25" font-weight="650">180+</text>
<line class="divider" x1="444" y1="84" x2="444" y2="132" opacity=".55"/>
<text x="466" y="94" font-size="12" opacity=".68">도구 호출</text><text x="466" y="124" font-size="25" font-weight="650">22,341+</text>
<line class="divider" x1="661" y1="84" x2="661" y2="132" opacity=".55"/>
<text x="683" y="94" font-size="12" opacity=".68">활동일</text><text x="683" y="124" font-size="25" font-weight="650">30 / 30</text>
<text x="32" y="174" font-size="14" font-weight="600">일별 토큰 활동</text>
<text x="868" y="174" font-size="10" text-anchor="end" opacity=".62">2026-08-22 — 2026-09-20 · 20 / 30일 토큰 일수 · + 하한</text>
<line class="grid" x1="64" y1="198" x2="868" y2="198" opacity=".45"/><line class="grid" x1="64" y1="262" x2="868" y2="262" opacity=".28"/><line class="grid" x1="64" y1="326" x2="868" y2="326" opacity=".65"/>
<text x="32" y="202" font-size="9" opacity=".58">2.7억</text><text x="32" y="330" font-size="9" opacity=".58">0</text>
<rect class="token-bar" x="68" y="251" width="15" height="75" rx="3" fill="#2f81f7"><title>2026-08-22: 1.5억+ 토큰</title></rect><rect class="token-bar" x="95" y="324" width="15" height="2" rx="3" fill="#2f81f7"><title>2026-08-23: 0+ 토큰</title></rect><rect class="token-bar" x="122" y="290" width="15" height="36" rx="3" fill="#2f81f7"><title>2026-08-24: 7,754.1만+ 토큰</title></rect><rect class="token-bar" x="149" y="268" width="15" height="58" rx="3" fill="#2f81f7"><title>2026-08-25: 1.2억+ 토큰</title></rect><rect class="token-bar token-unknown" x="176" y="318" width="15" height="8" rx="3" fill="none" stroke="#8c959f" stroke-dasharray="2 2" opacity=".7"><title>2026-08-26: 토큰 관측 범위 밖</title></rect><rect class="token-bar token-unknown" x="203" y="318" width="15" height="8" rx="3" fill="none" stroke="#8c959f" stroke-dasharray="2 2" opacity=".7"><title>2026-08-27: 토큰 관측 범위 밖</title></rect><rect class="token-bar" x="230" y="245" width="15" height="81" rx="3" fill="#2f81f7"><title>2026-08-28: 1.7억+ 토큰</title></rect><rect class="token-bar" x="257" y="299" width="15" height="27" rx="3" fill="#2f81f7"><title>2026-08-29: 5,826.2만+ 토큰</title></rect><rect class="token-bar" x="284" y="288" width="15" height="38" rx="3" fill="#2f81f7"><title>2026-08-30: 8,123.9만+ 토큰</title></rect><rect class="token-bar token-unknown" x="311" y="318" width="15" height="8" rx="3" fill="none" stroke="#8c959f" stroke-dasharray="2 2" opacity=".7"><title>2026-08-31: 토큰 관측 범위 밖</title></rect><rect class="token-bar" x="338" y="198" width="15" height="128" rx="3" fill="#2f81f7"><title>2026-09-01: 2.7억+ 토큰</title></rect><rect class="token-bar" x="365" y="255" width="15" height="71" rx="3" fill="#2f81f7"><title>2026-09-02: 1.5억+ 토큰</title></rect><rect class="token-bar" x="392" y="242" width="15" height="84" rx="3" fill="#2f81f7"><title>2026-09-03: 1.7억+ 토큰</title></rect><rect class="token-bar" x="419" y="288" width="15" height="38" rx="3" fill="#2f81f7"><title>2026-09-04: 7,979.6만+ 토큰</title></rect><rect class="token-bar" x="446" y="305" width="15" height="21" rx="3" fill="#2f81f7"><title>2026-09-05: 4,390.8만+ 토큰</title></rect><rect class="token-bar" x="473" y="317" width="15" height="9" rx="3" fill="#2f81f7"><title>2026-09-06: 1,870.5만+ 토큰</title></rect><rect class="token-bar token-unknown" x="500" y="318" width="15" height="8" rx="3" fill="none" stroke="#8c959f" stroke-dasharray="2 2" opacity=".7"><title>2026-09-07: 토큰 관측 범위 밖</title></rect><rect class="token-bar token-unknown" x="527" y="318" width="15" height="8" rx="3" fill="none" stroke="#8c959f" stroke-dasharray="2 2" opacity=".7"><title>2026-09-08: 토큰 관측 범위 밖</title></rect><rect class="token-bar token-unknown" x="554" y="318" width="15" height="8" rx="3" fill="none" stroke="#8c959f" stroke-dasharray="2 2" opacity=".7"><title>2026-09-09: 토큰 관측 범위 밖</title></rect><rect class="token-bar token-unknown" x="581" y="318" width="15" height="8" rx="3" fill="none" stroke="#8c959f" stroke-dasharray="2 2" opacity=".7"><title>2026-09-10: 토큰 관측 범위 밖</title></rect><rect class="token-bar" x="608" y="324" width="15" height="2" rx="3" fill="#2f81f7"><title>2026-09-11: 0+ 토큰</title></rect><rect class="token-bar" x="635" y="288" width="15" height="38" rx="3" fill="#2f81f7"><title>2026-09-12: 8,110.5만+ 토큰</title></rect><rect class="token-bar" x="662" y="321" width="15" height="5" rx="3" fill="#2f81f7"><title>2026-09-13: 999.7만+ 토큰</title></rect><rect class="token-bar token-unknown" x="689" y="318" width="15" height="8" rx="3" fill="none" stroke="#8c959f" stroke-dasharray="2 2" opacity=".7"><title>2026-09-14: 토큰 관측 범위 밖</title></rect><rect class="token-bar" x="716" y="255" width="15" height="71" rx="3" fill="#2f81f7"><title>2026-09-15: 1.5억+ 토큰</title></rect><rect class="token-bar" x="743" y="247" width="15" height="79" rx="3" fill="#2f81f7"><title>2026-09-16: 1.6억+ 토큰</title></rect><rect class="token-bar" x="770" y="284" width="15" height="42" rx="3" fill="#2f81f7"><title>2026-09-17: 8,859만+ 토큰</title></rect><rect class="token-bar" x="797" y="303" width="15" height="23" rx="3" fill="#2f81f7"><title>2026-09-18: 4,884.6만+ 토큰</title></rect><rect class="token-bar token-unknown" x="824" y="318" width="15" height="8" rx="3" fill="none" stroke="#8c959f" stroke-dasharray="2 2" opacity=".7"><title>2026-09-19: 토큰 관측 범위 밖</title></rect><rect class="token-bar token-unknown" x="851" y="318" width="15" height="8" rx="3" fill="none" stroke="#8c959f" stroke-dasharray="2 2" opacity=".7"><title>2026-09-20: 토큰 관측 범위 밖</title></rect>
<text x="75.5" y="348" font-size="9" text-anchor="middle" opacity=".62">08-22</text><text x="264.5" y="348" font-size="9" text-anchor="middle" opacity=".62">08-29</text><text x="453.5" y="348" font-size="9" text-anchor="middle" opacity=".62">09-05</text><text x="642.5" y="348" font-size="9" text-anchor="middle" opacity=".62">09-12</text><text x="858.5" y="348" font-size="9" text-anchor="middle" opacity=".62">09-20</text>
<line class="divider" x1="32" y1="382" x2="868" y2="382" opacity=".55"/>
<text x="32" y="414" font-size="14" font-weight="600">활동 인사이트</text>
<text x="32" y="476" font-size="12" opacity=".68">가장 높은 관측일</text><text x="270" y="476" font-size="18" font-weight="600">09-01</text>
<line class="divider" x1="450" y1="430" x2="450" y2="526" opacity=".55"/>
<text x="482" y="476" font-size="12" opacity=".68">관측 일일 토큰 중앙값</text><text x="700" y="476" font-size="18" font-weight="600">8,117.2만+</text>
<text x="32" y="568" font-size="10" opacity=".58">로컬 관측 · 익명 집계</text>
</svg>
